<?xml version="1.0" encoding="UTF-8"?>
<!DOCTYPE svg PUBLIC "-//W3C//DTD SVG 1.1//EN" "http://www.w3.org/Graphics/SVG/1.1/DTD/svg11.dtd">
<!-- Creator: CorelDRAW -->
<svg xmlns="http://www.w3.org/2000/svg" xml:space="preserve" width="3.1226mm" height="8.9958mm" version="1.1" style="shape-rendering:geometricPrecision; text-rendering:geometricPrecision; image-rendering:optimizeQuality; fill-rule:evenodd; clip-rule:evenodd"
viewBox="0 0 312.26 899.58"
 xmlns:xlink="http://www.w3.org/1999/xlink"
 xmlns:xodm="http://www.corel.com/coreldraw/odm/2003">
 <defs>
  <style type="text/css">
   <![CDATA[
    .fil0 {fill:#E31E24;fill-rule:nonzero}
   ]]>
  </style>
 </defs>
 <g id="Слой_x0020_1">
  <metadata id="CorelCorpID_0Corel-Layer"/>
  <path id="fixedHeight.svg" class="fil0" d="M39.04 383.82l15.35 0 0 -56.99c0,-29.67 11.97,-56.21 31.49,-75.46 19.52,-19.52 46.58,-31.23 75.98,-31.23 29.4,0 56.21,11.97 75.46,31.23 19.52,19.52 31.49,46.06 31.49,75.46l0 56.99 4.42 0c10.41,0 20.04,3.64 27.06,9.63 7.29,6.25 11.97,15.09 11.97,24.98l0 208.96c0,9.89 -4.68,18.74 -11.97,24.98 -7.03,5.99 -16.65,9.63 -27.06,9.63l-234.2 0c-10.41,0 -20.04,-3.64 -27.06,-9.63 -7.29,-6.25 -11.97,-15.09 -11.97,-24.98l0 -208.96c0,-9.89 4.68,-18.74 11.97,-24.98 7.03,-5.99 16.65,-9.63 27.06,-9.63l0.01 0zm121.26 68.7c18.74,0 34.09,15.09 34.09,34.09 0,15.35 -9.89,28.62 -24.46,33.05l24.46 79.89 -68.44 0 24.46 -79.89c-14.57,-4.42 -24.46,-17.7 -24.46,-33.05 0,-19 15.35,-34.09 34.35,-34.09zm-66.61 -68.7l135.58 0 0 -56.99c0,-18.74 -7.55,-35.39 -19.52,-47.36 -12.23,-12.49 -29.14,-19.78 -47.88,-19.78 -18.74,0 -35.91,7.29 -48.4,19.52 -12.23,12.23 -19.78,28.88 -19.78,47.62l0 56.99zm179.55 19l-234.2 0c-5.99,0 -11.19,1.82 -14.83,4.94 -3.38,2.86 -5.46,6.51 -5.46,10.67l0 208.96c0,4.16 2.08,7.81 5.46,10.67 3.64,3.12 8.85,5.2 14.83,5.2l234.2 0c5.99,0 11.19,-2.08 14.83,-5.2 3.38,-2.86 5.46,-6.51 5.46,-10.67l0 -208.96c0,-4.16 -2.08,-7.81 -5.46,-10.67 -3.64,-3.12 -8.85,-4.94 -14.83,-4.94zm-100.19 -201.93l0 -33.57c22.38,2.08 44.5,8.33 66.88,19.52l-80.15 -186.84 -80.15 186.84c22.38,-11.19 44.5,-17.43 66.88,-19.52l0 33.57 26.54 0zm-22.11 472.56l0 58.81c-23.94,-2.34 -45.28,-8.85 -66.62,-19.52l79.89 186.84 80.15 -186.84c-21.34,10.67 -42.94,17.17 -66.62,19.52l0 -58.81 -26.8 0z"/>
 </g>
</svg>
