<?xml version="1.0" encoding="UTF-8"?>
<!DOCTYPE svg PUBLIC "-//W3C//DTD SVG 1.1//EN" "http://www.w3.org/Graphics/SVG/1.1/DTD/svg11.dtd">
<!-- Creator: CorelDRAW -->
<svg xmlns="http://www.w3.org/2000/svg" xml:space="preserve" width="29px" height="34px" version="1.1" style="shape-rendering:geometricPrecision; text-rendering:geometricPrecision; image-rendering:optimizeQuality; fill-rule:evenodd; clip-rule:evenodd"
viewBox="0 0 29 33.99"
 xmlns:xlink="http://www.w3.org/1999/xlink"
 xmlns:xodm="http://www.corel.com/coreldraw/odm/2003">
 <defs>
  <style type="text/css">
   <![CDATA[
    .fil0 {fill:#2B2A29;fill-rule:nonzero}
   ]]>
  </style>
 </defs>
 <g id="Слой_x0020_1">
  <metadata id="CorelCorpID_0Corel-Layer"/>
  <path class="fil0" d="M9.99 14.5l0.57 0 0 -2.15c0,-1.12 0.46,-2.13 1.2,-2.86 0.74,-0.72 1.75,-1.17 2.87,-1.17 1.11,0 2.12,0.45 2.85,1.18 0.73,0.73 1.19,1.74 1.19,2.85l0 2.15 0.17 0c0.39,0 0.75,0.14 1.02,0.37 0.28,0.24 0.45,0.57 0.45,0.94l0 7.9c0,0.37 -0.17,0.71 -0.45,0.94 -0.27,0.23 -0.63,0.37 -1.02,0.37l-8.85 0c-0.4,0 -0.76,-0.14 -1.02,-0.37 -0.28,-0.23 -0.46,-0.57 -0.46,-0.94l0 -7.9c0,-0.37 0.18,-0.7 0.46,-0.94 0.26,-0.23 0.62,-0.37 1.02,-0.37zm4.57 2.6c0.72,0 1.29,0.57 1.29,1.29 0,0.57 -0.37,1.08 -0.91,1.25l0.91 3.02 -2.57 0 0.91 -3.02c-0.54,-0.17 -0.91,-0.68 -0.91,-1.25 0,-0.72 0.57,-1.29 1.28,-1.29zm-2.5 -2.6l5.11 0 0 -2.15c0,-0.7 -0.28,-1.34 -0.74,-1.79 -0.46,-0.47 -1.1,-0.75 -1.8,-0.75 -0.71,0 -1.36,0.28 -1.83,0.74 -0.46,0.46 -0.74,1.09 -0.74,1.8l0 2.15zm6.78 0.72l-8.85 0c-0.23,0 -0.42,0.07 -0.56,0.19 -0.13,0.1 -0.21,0.25 -0.21,0.4l0 7.9c0,0.15 0.08,0.3 0.21,0.4 0.14,0.12 0.33,0.19 0.56,0.19l8.85 0c0.22,0 0.42,-0.07 0.56,-0.19 0.12,-0.1 0.2,-0.25 0.2,-0.4l0 -7.9c0,-0.15 -0.08,-0.3 -0.2,-0.4 -0.14,-0.12 -0.34,-0.19 -0.56,-0.19zm-11.25 2.38l-1.26 0c0.07,-0.84 0.31,-1.68 0.73,-2.52l-7.06 3.02 7.06 3.03c-0.42,-0.84 -0.66,-1.68 -0.73,-2.52l1.26 0 0 -1.01zm13.82 0l1.26 0c-0.07,-0.84 -0.31,-1.68 -0.73,-2.52l7.06 3.02 -7.06 3.03c0.42,-0.84 0.66,-1.68 0.73,-2.52l-1.26 0 0 -1.01zm-6.35 -10.01l0 -1.26c0.84,0.07 1.68,0.31 2.52,0.73l-3.03 -7.06 -3.03 7.06c0.85,-0.42 1.69,-0.66 2.53,-0.73l0 1.26 1.01 0zm-0.84 17.86l0 2.22c-0.91,-0.09 -1.72,-0.34 -2.53,-0.74l3.03 7.06 3.03 -7.06c-0.81,0.4 -1.62,0.65 -2.53,0.74l0 -2.22 -1 0z"/>
 </g>
</svg>
