<?xml version="1.0" encoding="UTF-8"?>
<!DOCTYPE svg PUBLIC "-//W3C//DTD SVG 1.1//EN" "http://www.w3.org/Graphics/SVG/1.1/DTD/svg11.dtd">
<!-- Creator: CorelDRAW -->
<svg xmlns="http://www.w3.org/2000/svg" xml:space="preserve" width="12px" height="34px" version="1.1" style="shape-rendering:geometricPrecision; text-rendering:geometricPrecision; image-rendering:optimizeQuality; fill-rule:evenodd; clip-rule:evenodd"
viewBox="0 0 12 34.57"
 xmlns:xlink="http://www.w3.org/1999/xlink"
 xmlns:xodm="http://www.corel.com/coreldraw/odm/2003">
 <defs>
  <style type="text/css">
   <![CDATA[
    .fil0 {fill:#2B2A29;fill-rule:nonzero}
   ]]>
  </style>
 </defs>
 <g id="Слой_x0020_1">
  <metadata id="CorelCorpID_0Corel-Layer"/>
  <path class="fil0" d="M1.5 14.75l0.59 0 0 -2.19c0,-1.14 0.46,-2.16 1.21,-2.9 0.75,-0.75 1.79,-1.2 2.92,-1.2 1.13,0 2.16,0.46 2.9,1.2 0.75,0.75 1.21,1.77 1.21,2.9l0 2.19 0.17 0c0.4,0 0.77,0.14 1.04,0.37 0.28,0.24 0.46,0.58 0.46,0.96l0 8.03c0,0.38 -0.18,0.72 -0.46,0.96 -0.27,0.23 -0.64,0.37 -1.04,0.37l-9 0c-0.4,0 -0.77,-0.14 -1.04,-0.37 -0.28,-0.24 -0.46,-0.58 -0.46,-0.96l0 -8.03c0,-0.38 0.18,-0.72 0.46,-0.96 0.27,-0.23 0.64,-0.37 1.04,-0.37zm4.66 2.64c0.72,0 1.31,0.58 1.31,1.31 0,0.59 -0.38,1.1 -0.94,1.27l0.94 3.07 -2.63 0 0.94 -3.07c-0.56,-0.17 -0.94,-0.68 -0.94,-1.27 0,-0.73 0.59,-1.31 1.32,-1.31zm-2.56 -2.64l5.21 0 0 -2.19c0,-0.72 -0.29,-1.36 -0.75,-1.82 -0.47,-0.48 -1.12,-0.76 -1.84,-0.76 -0.72,0 -1.38,0.28 -1.86,0.75 -0.47,0.47 -0.76,1.11 -0.76,1.83l0 2.19zm6.9 0.73l-9 0c-0.23,0 -0.43,0.07 -0.57,0.19 -0.13,0.11 -0.21,0.25 -0.21,0.41l0 8.03c0,0.16 0.08,0.3 0.21,0.41 0.14,0.12 0.34,0.2 0.57,0.2l9 0c0.23,0 0.43,-0.08 0.57,-0.2 0.13,-0.11 0.21,-0.25 0.21,-0.41l0 -8.03c0,-0.16 -0.08,-0.3 -0.21,-0.41 -0.14,-0.12 -0.34,-0.19 -0.57,-0.19zm-3.85 -7.76l0 -1.29c0.86,0.08 1.71,0.32 2.57,0.75l-3.08 -7.18 -3.08 7.18c0.86,-0.43 1.71,-0.67 2.57,-0.75l0 1.29 1.02 0zm-0.85 18.16l0 2.26c-0.92,-0.09 -1.74,-0.34 -2.56,-0.75l3.07 7.18 3.08 -7.18c-0.82,0.41 -1.65,0.66 -2.56,0.75l0 -2.26 -1.03 0z"/>
 </g>
</svg>
