<?xml version="1.0" encoding="UTF-8"?>
<!DOCTYPE svg PUBLIC "-//W3C//DTD SVG 1.1//EN" "http://www.w3.org/Graphics/SVG/1.1/DTD/svg11.dtd">
<!-- Creator: CorelDRAW -->
<svg xmlns="http://www.w3.org/2000/svg" xml:space="preserve" width="29px" height="17px" version="1.1" style="shape-rendering:geometricPrecision; text-rendering:geometricPrecision; image-rendering:optimizeQuality; fill-rule:evenodd; clip-rule:evenodd"
viewBox="0 0 29 16.7"
 xmlns:xlink="http://www.w3.org/1999/xlink"
 xmlns:xodm="http://www.corel.com/coreldraw/odm/2003">
 <defs>
  <style type="text/css">
   <![CDATA[
    .fil0 {fill:#2B2A29;fill-rule:nonzero}
   ]]>
  </style>
 </defs>
 <g id="Слой_x0020_1">
  <metadata id="CorelCorpID_0Corel-Layer"/>
  <path class="fil0" d="M9.99 6.19l0.57 0 0 -2.16c0,-1.11 0.46,-2.12 1.2,-2.85 0.74,-0.73 1.75,-1.18 2.87,-1.18 1.11,0 2.12,0.45 2.85,1.19 0.73,0.73 1.19,1.73 1.19,2.84l0 2.16 0.17 0c0.39,0 0.75,0.14 1.02,0.36 0.28,0.24 0.45,0.57 0.45,0.94l0 7.9c0,0.37 -0.17,0.71 -0.45,0.95 -0.27,0.22 -0.63,0.36 -1.02,0.36l-8.85 0c-0.4,0 -0.76,-0.14 -1.02,-0.36 -0.28,-0.24 -0.46,-0.58 -0.46,-0.95l0 -7.9c0,-0.37 0.18,-0.7 0.46,-0.94 0.26,-0.22 0.62,-0.36 1.02,-0.36zm4.57 2.59c0.72,0 1.29,0.58 1.29,1.29 0,0.58 -0.37,1.09 -0.91,1.25l0.91 3.02 -2.57 0 0.91 -3.02c-0.54,-0.16 -0.91,-0.67 -0.91,-1.25 0,-0.71 0.57,-1.29 1.28,-1.29zm-2.5 -2.59l5.11 0 0 -2.16c0,-0.7 -0.28,-1.34 -0.74,-1.79 -0.46,-0.46 -1.1,-0.75 -1.8,-0.75 -0.71,0 -1.36,0.29 -1.83,0.75 -0.46,0.45 -0.74,1.09 -0.74,1.79l0 2.16zm6.78 0.71l-8.85 0c-0.23,0 -0.42,0.07 -0.56,0.19 -0.13,0.11 -0.21,0.25 -0.21,0.4l0 7.9c0,0.16 0.08,0.3 0.21,0.4 0.14,0.12 0.33,0.2 0.56,0.2l8.85 0c0.22,0 0.42,-0.08 0.56,-0.2 0.12,-0.1 0.2,-0.24 0.2,-0.4l0 -7.9c0,-0.15 -0.08,-0.29 -0.2,-0.4 -0.14,-0.12 -0.34,-0.19 -0.56,-0.19zm-11.25 2.38l-1.26 0c0.07,-0.84 0.31,-1.68 0.73,-2.52l-7.06 3.03 7.06 3.02c-0.42,-0.84 -0.66,-1.68 -0.73,-2.52l1.26 0 0 -1.01zm13.82 0l1.26 0c-0.07,-0.84 -0.31,-1.68 -0.73,-2.52l7.06 3.03 -7.06 3.02c0.42,-0.84 0.66,-1.68 0.73,-2.52l-1.26 0 0 -1.01z"/>
 </g>
</svg>
