<?xml version="1.0" encoding="UTF-8"?>
<!DOCTYPE svg PUBLIC "-//W3C//DTD SVG 1.1//EN" "http://www.w3.org/Graphics/SVG/1.1/DTD/svg11.dtd">
<!-- Creator: CorelDRAW -->
<svg xmlns="http://www.w3.org/2000/svg" xml:space="preserve" width="7.6732mm" height="8.9934mm" version="1.1" style="shape-rendering:geometricPrecision; text-rendering:geometricPrecision; image-rendering:optimizeQuality; fill-rule:evenodd; clip-rule:evenodd"
viewBox="0 0 767.32 899.34"
 xmlns:xlink="http://www.w3.org/1999/xlink"
 xmlns:xodm="http://www.corel.com/coreldraw/odm/2003">
 <defs>
  <style type="text/css">
   <![CDATA[
    .fil0 {fill:#E31E24;fill-rule:nonzero}
   ]]>
  </style>
 </defs>
 <g id="Слой_x0020_1">
  <metadata id="CorelCorpID_0Corel-Layer"/>
  <path class="fil0" d="M264.33 383.66l15.08 0 0 -56.89c0,-29.63 12.17,-56.36 31.75,-75.67 19.58,-19.05 46.3,-30.96 75.94,-30.96 29.37,0 56.09,11.91 75.41,31.22 19.31,19.31 31.49,46.04 31.49,75.41l0 56.89 4.5 0c10.32,0 19.84,3.7 26.99,9.79 7.41,6.35 11.91,15.08 11.91,24.87l0 209.02c0,9.79 -4.5,18.79 -11.91,24.87 -7.14,6.09 -16.67,9.79 -26.99,9.79l-234.16 0c-10.58,0 -20.11,-3.7 -26.99,-9.79 -7.41,-6.09 -12.17,-15.08 -12.17,-24.87l0 -209.02c0,-9.79 4.76,-18.52 12.17,-24.87 6.88,-6.09 16.4,-9.79 26.99,-9.79l-0.01 0zm120.92 68.79c19.05,0 34.13,15.08 34.13,34.13 0,15.08 -9.79,28.58 -24.08,33.07l24.08 79.9 -68 0 24.08 -79.9c-14.29,-4.5 -24.08,-17.99 -24.08,-33.07 0,-19.05 15.08,-34.13 33.87,-34.13zm-66.15 -68.79l135.2 0 0 -56.89c0,-18.52 -7.41,-35.45 -19.58,-47.36 -12.17,-12.44 -29.1,-19.84 -47.63,-19.84 -18.79,0 -35.98,7.41 -48.42,19.58 -12.17,12.17 -19.58,28.84 -19.58,47.63l0 56.89 0.01 -0.01zm179.39 19.05l-234.16 0c-6.09,0 -11.11,1.85 -14.82,5.03 -3.44,2.65 -5.56,6.61 -5.56,10.58l0 209.02c0,3.97 2.12,7.94 5.56,10.58 3.7,3.18 8.73,5.03 14.82,5.03l234.16 0c5.82,0 11.11,-1.85 14.82,-5.03 3.18,-2.65 5.29,-6.61 5.29,-10.58l0 -209.02c0,-3.97 -2.12,-7.94 -5.29,-10.58 -3.7,-3.18 -9,-5.03 -14.82,-5.03zm-297.66 62.97l-33.34 0c1.85,-22.23 8.2,-44.45 19.31,-66.68l-186.8 79.9 186.8 80.17c-11.11,-22.23 -17.46,-44.45 -19.31,-66.68l33.34 0 0 -26.72 0 0.01zm365.66 0l33.34 0c-1.85,-22.23 -8.2,-44.45 -19.31,-66.68l186.8 79.9 -186.8 80.17c11.11,-22.23 17.46,-44.45 19.31,-66.68l-33.34 0 0 -26.72 0 0.01zm-168.01 -264.85l0 -33.34c22.23,1.85 44.45,8.2 66.68,19.31l-80.17 -186.8 -80.17 186.8c22.49,-11.11 44.71,-17.46 66.94,-19.31l0 33.34 26.72 0zm-22.23 472.55l0 58.74c-24.08,-2.38 -45.51,-9 -66.94,-19.58l80.17 186.8 80.17 -186.8c-21.43,10.58 -42.86,17.2 -66.94,19.58l0 -58.74 -26.46 0z"/>
 </g>
</svg>
