<?xml version="1.0" encoding="UTF-8"?>
<!DOCTYPE svg PUBLIC "-//W3C//DTD SVG 1.1//EN" "http://www.w3.org/Graphics/SVG/1.1/DTD/svg11.dtd">
<!-- Creator: CorelDRAW -->
<svg xmlns="http://www.w3.org/2000/svg" xml:space="preserve" width="58px" height="56px" version="1.1" style="shape-rendering:geometricPrecision; text-rendering:geometricPrecision; image-rendering:optimizeQuality; fill-rule:evenodd; clip-rule:evenodd"
viewBox="0 0 58 56.58"
 xmlns:xlink="http://www.w3.org/1999/xlink"
 xmlns:xodm="http://www.corel.com/coreldraw/odm/2003">
 <defs>
  <style type="text/css">
   <![CDATA[
    .fil0 {fill:black;fill-rule:nonzero}
   ]]>
  </style>
 </defs>
 <g id="Слой_x0020_1">
  <metadata id="CorelCorpID_0Corel-Layer"/>
  <g id="sortDesc.svg">
   <path class="fil0" d="M29 14.47c-0.04,-0.94 -0.36,-1.82 -1.04,-2.51l-3.71 -3.7 -5.89 -5.9 -1.35 -1.34c-0.3,-0.3 -0.65,-0.54 -1.02,-0.7 -1.31,-0.59 -2.94,-0.36 -4,0.7l-10.95 10.94c-0.64,0.65 -1.04,1.6 -1.04,2.51 0,0.87 0.39,1.92 1.04,2.51 0.68,0.63 1.56,1.09 2.51,1.05 0.95,-0.05 1.84,-0.37 2.52,-1.05l3.71 -3.7 1.17 -1.17 0 38.9c0,0.64 -0.01,1.29 0,1.93l0 0.08c0,0.91 0.39,1.87 1.04,2.51 0.61,0.62 1.62,1.08 2.51,1.04 0.91,-0.04 1.87,-0.34 2.51,-1.04 0.64,-0.69 1.04,-1.55 1.04,-2.51l0 -40.93 3.54 3.55 1.35 1.34c0.64,0.65 1.6,1.05 2.51,1.05 0.87,0 1.91,-0.39 2.51,-1.05 0.62,-0.67 1.08,-1.56 1.04,-2.51l0 0z"/>
   <path class="fil0" d="M25.59 30.68c-0.96,0 -1.82,-0.4 -2.51,-1.04 -0.7,-0.64 -1,-1.59 -1.04,-2.51 -0.04,-0.88 0.42,-1.89 1.04,-2.51 0.65,-0.64 1.6,-1.04 2.51,-1.04l0.05 0c1.16,-0.01 2.34,0 3.5,0l25.31 0c0.96,0 1.82,0.4 2.51,1.04 0.7,0.64 1,1.59 1.04,2.51 0.03,0.88 -0.43,1.89 -1.04,2.51 -0.65,0.65 -1.6,1.04 -2.51,1.04l-0.05 0c-1.17,0.01 -2.34,0 -3.5,0l-25.31 0zm19.74 3.34c0.96,0 1.81,0.4 2.51,1.04 0.69,0.64 1,1.59 1.04,2.51 0.03,0.88 -0.43,1.9 -1.04,2.51 -0.65,0.65 -1.6,1.04 -2.51,1.04l-19.74 0c-0.96,0 -1.82,-0.4 -2.51,-1.04 -0.7,-0.64 -1,-1.59 -1.04,-2.51 -0.04,-0.88 0.42,-1.89 1.04,-2.51 0.65,-0.64 1.6,-1.04 2.51,-1.04l19.74 0zm-9.13 10.44c0.96,0 1.82,0.4 2.51,1.04 0.7,0.64 1,1.59 1.04,2.51 0.04,0.88 -0.43,1.89 -1.04,2.51 -0.65,0.64 -1.6,1.04 -2.51,1.04l-10.61 0c-0.96,0 -1.82,-0.4 -2.51,-1.04 -0.7,-0.64 -1,-1.59 -1.04,-2.51 -0.04,-0.88 0.42,-1.9 1.04,-2.51 0.65,-0.65 1.6,-1.04 2.51,-1.04l10.61 0z"/>
  </g>
 </g>
</svg>
